<?xml version="1.0" encoding="UTF-8"?>
<svg id="Camada_1" data-name="Camada 1" xmlns="http://www.w3.org/2000/svg" xmlns:xlink="http://www.w3.org/1999/xlink" viewBox="0 0 537.43 169.72">
  <defs>
    <style>
      .cls-1 {
        fill: url(#Gradiente_sem_nome_2);
      }

      .cls-1, .cls-2 {
        stroke-width: 0px;
      }
    </style>
    <linearGradient id="Gradiente_sem_nome_2" data-name="Gradiente sem nome 2" x1="518.98" y1="84.56" x2="147.06" y2="84.56" gradientUnits="userSpaceOnUse">
      <stop offset="0" stop-color="#15adff"/>
      <stop offset="1" stop-color="#0538ff"/>
    </linearGradient>
  </defs>
  <path class="cls-1" d="M492.04,15.1c-6.69,0-11.95.06-17.2-.02-5.65-.09-9.06-3.14-8.97-7.83.09-4.4,3.43-7.09,9.02-7.12C487.23.05,499.56.01,511.89,0c5.19,0,6.99,1.68,7.01,6.77.07,13.33.1,26.66.04,39.99-.02,4.9-3.27,8.21-7.59,8.1-4.29-.11-7.56-3.48-7.63-8.17-.11-6.45-.03-12.91-.03-19.37l-1.23-.52c-2.92,2.81-5.9,5.55-8.75,8.43-6.39,6.45-12.52,13.19-19.19,19.34-2.18,2.01-5.06,3.12-8.03,3.12-74.32.2-148.65.23-222.97.1-4.05,0-5.07,2.16-6.26,4.96-10.78,25.44-10.84,29.66-37.8,89.21l-6.18,13.59c-.61.95-2.06,3.56-6.26,3.56-2.6-.13-4.38-.36-5.75-1.71-.4-.4-.87-.96-1.36-1.6-2.12-2.78-5.78-10.66-7.09-13.89-9.01-22.14-15.93-38.92-24.87-61.16-2.17-5.39-.4-9.22,4.25-10.97,4.38-1.65,8.1-.03,10.25,5.19,7.31,17.69,14.41,35.47,21.6,53.21.55,1.35,1.15,2.68,2.15,5.02,1.22-2.52,2.12-4.18,2.85-5.91,11.62-27.63,23.21-55.26,34.82-82.89,1.03-2.45,2.22-4.84,3.27-7.29,1.43-3.31,3.84-4.54,7.49-4.53,73.32.09,146.65,0,219.97.25,7.39.03,13.04-1.66,17.88-7.4,4.49-5.33,9.8-9.98,14.71-14.96,1.34-1.36,2.55-2.84,4.82-5.37Z"/>
  <path class="cls-2" d="M326.38,112.32c0,6.43-.01,12.85,0,19.28.02,9.66.1,19.33.09,28.99-.01,5.35-3.24,8.92-7.95,8.98-4.78.07-7.82-3.28-7.85-8.92-.1-23.66-.12-47.32-.23-70.98-.02-4.57,1.2-8.25,5.99-9.77,4.92-1.57,8.27.6,11.04,4.52,11.7,16.61,23.47,33.17,35.22,49.75.95,1.34,1.89,2.67,3.5,4.93.2-2.03.39-3.01.39-3.99-.1-15.33-.2-30.66-.35-45.98-.04-3.94.86-7.27,4.9-8.96,5.37-2.25,11.07.94,11.11,6.76.16,24.49.08,48.98.01,73.48-.01,4.26-2.23,7.32-6.31,8.64-4.48,1.45-7.77-.65-10.3-4.15-9.68-13.35-19.31-26.73-28.95-40.11-3.02-4.19-6-8.39-9-12.59-.43.04-.86.08-1.29.11Z"/>
  <path class="cls-2" d="M89,96.01v20.01c2.3.12,4.55.34,6.8.35,7.83.04,15.66-.11,23.48.05,5.24.11,8.51,3.33,8.51,7.87,0,4.85-3.29,7.85-8.86,7.88-9.79.05-19.59.01-29.75.01v21.14c1.93.1,3.72.27,5.52.28,11.32.04,22.65.01,33.97.08,5.05.03,8.01,2.85,8.09,7.47.07,4.6-3.32,7.97-8.28,7.97-15.49.02-30.98.02-46.47-.08-6.11-.04-8.87-2.75-8.9-8.91-.1-23.98-.11-47.96-.1-71.95,0-5.01,2.64-7.87,7.63-7.92,15.65-.14,31.31-.16,46.96-.06,5.01.03,8.4,3.65,8.21,8.15-.2,4.46-3.78,7.66-8.73,7.67-12.47.03-24.95,0-38.11,0Z"/>
  <path class="cls-2" d="M258.12,79.16c5.99.13,8.6,3.09,10.4,7.51,8.73,21.41,17.6,42.76,26.42,64.14,1.14,2.77,2.43,5.48,3.43,8.3,1.47,4.15-.04,7.89-3.7,9.65-3.89,1.87-8.27.76-10.34-3.11-2.03-3.8-3.75-7.81-5.22-11.86-1.05-2.91-2.52-4.15-5.76-4.07-9.82.22-19.65.18-29.47.07-2.69-.03-4.24.66-5.16,3.42-1.26,3.77-2.9,7.44-4.65,11.02-2.39,4.91-6.3,6.59-10.49,4.83-4.48-1.89-6.09-5.94-3.91-11.25,7.52-18.31,15.21-36.55,22.84-54.81,2.5-5.99,4.99-11.97,7.52-17.95,1.68-3.98,4.87-5.7,8.09-5.87ZM271.35,133.94c-4.14-10.22-7.96-19.63-12.34-30.43-4.45,10.95-8.31,20.44-12.37,30.43h24.71Z"/>
  <path class="cls-2" d="M537.43,163.32c-2,1.75-4.03,4.47-6.73,5.62-3.24,1.39-6.71.33-8.4-3.32-1.96-4.22-3.47-8.67-5.62-12.79-.72-1.38-2.78-2.86-4.26-2.9-10.66-.26-21.33-.28-31.98-.05-1.46.03-3.48,1.55-4.21,2.93-2,3.82-3.28,8.01-5.16,11.9-2.09,4.31-6.24,5.76-10.45,4.01-4.01-1.67-5.71-5.84-3.81-10.41,10.09-24.29,20.29-48.53,30.42-72.79,1.74-4.17,4.87-6.24,9.3-6.27,4.56-.03,7.46,2.5,9.15,6.52,7.13,17.05,14.21,34.11,21.32,51.16,2.88,6.91,5.81,13.81,8.67,20.73.56,1.37.89,2.84,1.75,5.64ZM484.01,133.86h24.87c-4.19-10.17-8.18-19.81-12.62-30.58-4.37,10.92-8.24,20.58-12.25,30.58Z"/>
  <path class="cls-2" d="M437.11,95.74c0,9.56-.01,18.35,0,27.15.02,12.33.09,24.66.1,36.99,0,6.03-2.86,9.45-7.8,9.45-5.15,0-8.29-3.68-8.26-9.75.1-20.16.22-40.31.33-60.47,0-.81-.12-1.63-.25-3.2-5.99,0-11.91.02-17.84,0-6.38-.02-9.88-2.91-9.77-8.01.11-4.99,3.34-7.62,9.59-7.65,17.49-.06,34.99-.09,52.48-.06,1.63,0,3.39.13,4.86.74,3.61,1.49,5.56,4.36,4.85,8.31-.72,4.05-3.19,6.51-7.57,6.51-6.65,0-13.3,0-20.74,0Z"/>
  <path class="cls-2" d="M16.04,153.72c13.21,0,25.52,0,37.82,0,3.81,0,6.37,1.73,7.33,5.47,1,3.89-.4,6.93-3.81,8.87-1.23.69-2.84.97-4.28.98-14.83.08-29.65.12-44.48.04-5.41-.03-8.45-2.91-8.49-8.36C0,136.56-.03,112.4.02,88.25c.01-5.18,3.72-8.77,8.36-8.64,4.67.13,7.48,3.27,7.5,8.64.08,19.32.11,38.65.16,57.97,0,2.29,0,4.58,0,7.5Z"/>
</svg>